name GIL12_free4.mot
datacolumns 153
datarows 4
range 0.09166671 0.11666670
endheader

                time	           pelvis_tx	           pelvis_ty	           pelvis_tz	         pelvis_tilt	         pelvis_list	     pelvis_rotation	       hip_flexion_r	     hip_adduction_r	      hip_rotation_r	        knee_angle_r	       ankle_angle_r	    subtalar_angle_r	         mtp_angle_r	       hip_flexion_l	     hip_adduction_l	      hip_rotation_l	        knee_angle_l	       ankle_angle_l	    subtalar_angle_l	         mtp_angle_l	    lumbar_extension	      lumbar_bending	     lumbar_rotation	     ground_force_vx	     ground_force_vy	     ground_force_vz	     ground_force_px	     ground_force_py	     ground_force_pz	     ground_force_vx	     ground_force_vy	     ground_force_vz	     ground_force_px	     ground_force_py	     ground_force_pz	     ground_torque_x	     ground_torque_y	     ground_torque_z	     ground_torque_x	     ground_torque_y	     ground_torque_z	    ground_marker_px	    ground_marker_py	    ground_marker_pz	    ground_marker_px	    ground_marker_py	    ground_marker_pz	    ground_marker_px	    ground_marker_py	    ground_marker_pz	    ground_marker_px	    ground_marker_py	    ground_marker_pz	    ground_marker_px	    ground_marker_py	    ground_marker_pz	    ground_marker_px	    ground_marker_py	    ground_marker_pz	    ground_marker_px	    ground_marker_py	    ground_marker_pz	    ground_marker_px	    ground_marker_py	    ground_marker_pz	    ground_marker_px	    ground_marker_py	    ground_marker_pz	    ground_marker_px	    ground_marker_py	    ground_marker_pz	    ground_marker_px	    ground_marker_py	    ground_marker_pz	    ground_marker_px	    ground_marker_py	    ground_marker_pz	    ground_marker_px	    ground_marker_py	    ground_marker_pz	    ground_marker_px	    ground_marker_py	    ground_marker_pz	    ground_marker_px	    ground_marker_py	    ground_marker_pz	    ground_marker_px	    ground_marker_py	    ground_marker_pz	    ground_marker_px	    ground_marker_py	    ground_marker_pz	    ground_marker_px	    ground_marker_py	    ground_marker_pz	    ground_marker_px	    ground_marker_py	    ground_marker_pz	    ground_marker_px	    ground_marker_py	    ground_marker_pz	    ground_marker_px	    ground_marker_py	    ground_marker_pz	    ground_marker_px	    ground_marker_py	    ground_marker_pz	    ground_marker_px	    ground_marker_py	    ground_marker_pz	    ground_marker_px	    ground_marker_py	    ground_marker_pz	    ground_marker_px	    ground_marker_py	    ground_marker_pz	    ground_marker_px	    ground_marker_py	    ground_marker_pz	    ground_marker_px	    ground_marker_py	    ground_marker_pz	    ground_marker_px	    ground_marker_py	    ground_marker_pz	    ground_marker_px	    ground_marker_py	    ground_marker_pz	    ground_marker_px	    ground_marker_py	    ground_marker_pz	    ground_marker_px	    ground_marker_py	    ground_marker_pz	    ground_marker_px	    ground_marker_py	    ground_marker_pz	    ground_marker_px	    ground_marker_py	    ground_marker_pz	    ground_marker_px	    ground_marker_py	    ground_marker_pz	    ground_marker_px	    ground_marker_py	    ground_marker_pz	    ground_marker_px	    ground_marker_py	    ground_marker_pz	    ground_marker_px	    ground_marker_py	    ground_marker_pz	
          0.09166671	          0.76816475	          0.66905785	         -0.31862208	          7.01389742	          6.46136808	         -3.97643733	        -20.45328522	         -4.32808495	        -13.94507599	        -38.05852127	        -11.10071468	          0.00000000	          0.00000000	         18.65468407	         12.74894714	          1.98490644	        -22.95139885	         -3.78481865	          0.00000000	          0.00000000	        -24.87212563	         -9.18875790	          8.63038921	          0.00000000	          0.00000000	          0.00000000	          1.24052747	          0.00000000	         -0.21294856	        -55.40470902	        299.56297028	         -7.24757120	          0.87017389	          0.00000000	         -0.33067923	          0.00000000	          0.00000000	          0.00000000	          0.00000000	          0.47114194	          0.00000000	          0.72027427	          0.59318697	         -0.32743528	          0.72194761	          0.59983897	         -0.27044624	          0.73120707	          0.61226588	         -0.38686422	          0.65089029	          0.30851206	         -0.28434083	          0.85246801	          0.34187469	         -0.33926409	          0.41864997	          0.12627143	         -0.32397461	          0.86236387	          0.05635699	         -0.32860067	          0.76816475	          0.66905785	         -0.31862208	          0.76108027	          0.65954989	         -0.22954954	          0.77524924	          0.67856574	         -0.40769461	          0.62691224	          0.68111998	         -0.28468847	          0.63379896	          0.68296814	         -0.36950091	          0.63741106	          0.30970290	         -0.24037616	          0.86222446	          0.33800465	         -0.38610247	          0.66804677	          0.30534533	         -0.32858211	          0.84673107	          0.34826508	         -0.29267636	          0.40997320	          0.13034783	         -0.29187560	          0.85673511	          0.05496757	         -0.36057937	          0.42688289	          0.13289119	         -0.34852529	          0.85818952	          0.05521004	         -0.29496825	          0.69643515	          1.00650167	         -0.33514425	          0.78713322	          0.93098384	         -0.30303967	          0.77696902	          0.93096411	         -0.39247611	          0.76909900	          0.94549763	         -0.33829021	          0.79987442	          0.80668610	         -0.34716448	          0.79859096	          0.36135897	         -0.26814759	          0.90167713	          0.43358764	         -0.44207788	          0.73242706	          0.43015093	         -0.23757093	          0.85742188	          0.49131769	         -0.37037531	          0.70113778	          0.34887317	         -0.24557598	          0.88355988	          0.41722226	         -0.33946526	          0.47684801	          0.16135935	         -0.21129531	          0.95072383	          0.16694304	         -0.29770648	          0.52860439	          0.21269298	         -0.26070324	          0.89365518	          0.21924691	         -0.32605910	          0.44795761	          0.04777531	         -0.33489650	          0.94786471	          0.03728718	         -0.32151291	
          0.10000004	          0.77869552	          0.67019510	         -0.31771925	          7.23222303	          6.83089590	         -4.33418751	        -18.92958450	         -5.47855759	        -14.49198341	        -41.30007553	        -14.24388504	          0.00000000	          0.00000000	         17.68699074	         13.12745380	          2.78370547	        -23.47423744	         -2.39756942	          0.00000000	          0.00000000	        -24.89239120	         -9.68404579	          8.40369511	          0.00000000	          0.00000000	          0.00000000	          1.24120642	          0.00000000	         -0.21303131	        -54.17273337	        310.73183354	         -6.52815755	          0.87170044	          0.00000000	         -0.33046426	          0.00000000	          0.00000000	          0.00000000	          0.00000000	          0.55081763	          0.00000000	          0.73107266	          0.59429294	         -0.32742178	          0.73237109	          0.60055125	         -0.27026424	          0.74237382	          0.61369425	         -0.38654205	          0.66964054	          0.30709213	         -0.27987763	          0.85931373	          0.34160751	         -0.33840838	          0.43304038	          0.13124187	         -0.32084495	          0.86258185	          0.05613471	         -0.32837382	          0.77869552	          0.67019510	         -0.31771925	          0.77103949	          0.66013557	         -0.22872114	          0.78635156	          0.68025458	         -0.40671736	          0.63728350	          0.68151700	         -0.28470337	          0.64463562	          0.68409717	         -0.36943704	          0.65549052	          0.30868399	         -0.23613699	          0.86997056	          0.33793372	         -0.38506600	          0.68798739	          0.30207372	         -0.32337096	          0.85066742	          0.34782341	         -0.29255900	          0.42401132	          0.13595521	         -0.28893083	          0.85715425	          0.05494700	         -0.36039537	          0.44206834	          0.13734846	         -0.34560716	          0.85832560	          0.05498935	         -0.29478133	          0.70621181	          1.00761485	         -0.33472854	          0.79684824	          0.93240577	         -0.30169716	          0.78737760	          0.93204749	         -0.39127120	          0.77911508	          0.94671535	         -0.33721659	          0.81022096	          0.80798399	         -0.34531245	          0.81577575	          0.36344752	         -0.26253945	          0.91193491	          0.43387607	         -0.44004649	          0.74774796	          0.43052918	         -0.23422426	          0.86732316	          0.49116305	         -0.36884254	          0.71882516	          0.34815395	         -0.24091326	          0.89066511	          0.41604659	         -0.33766353	          0.49034005	          0.16584608	         -0.20759235	          0.95362967	          0.16431759	         -0.29641357	          0.54431468	          0.21510580	         -0.25613138	          0.89796412	          0.21786302	         -0.32517344	          0.45639512	          0.05043978	         -0.33248717	          0.94798332	          0.03710090	         -0.32119259	
          0.10833337	          0.78904063	          0.67140055	         -0.31686720	          7.38138437	          7.15876770	         -4.71460962	        -17.19573975	         -6.57059717	        -15.11465836	        -44.57828522	        -16.42506981	          0.00000000	          0.00000000	         16.70457840	         13.41163445	          2.92709947	        -23.74054718	         -1.13677382	          0.00000000	          0.00000000	        -24.86328697	        -10.03066444	          8.10080242	          0.00000000	          0.00000000	          0.00000000	          1.24193616	          0.00000000	         -0.21313156	        -52.19660075	        320.65629793	         -5.22480684	          0.87358765	          0.00000000	         -0.33037720	          0.00000000	          0.00000000	          0.00000000	          0.00000000	          0.60174963	          0.00000000	          0.74154973	          0.59548891	         -0.32738441	          0.74251002	          0.60143018	         -0.27009940	          0.75330627	          0.61519188	         -0.38623455	          0.68880427	          0.30604672	         -0.27534741	          0.86554217	          0.34130391	         -0.33790809	          0.44846252	          0.13647617	         -0.31780884	          0.86284977	          0.05592197	         -0.32829550	          0.78904063	          0.67140055	         -0.31686720	          0.78077543	          0.66086513	         -0.22795881	          0.79730582	          0.68193597	         -0.40577561	          0.64747965	          0.68215728	         -0.28487611	          0.65531015	          0.68548506	         -0.36950645	          0.67384022	          0.30799538	         -0.23189303	          0.87657809	          0.33760959	         -0.38447589	          0.70735824	          0.29962841	         -0.31784385	          0.85650730	          0.34708592	         -0.29317820	          0.43918061	          0.14167769	         -0.28604344	          0.85746986	          0.05489368	         -0.36033064	          0.45693550	          0.14292102	         -0.34306708	          0.85830706	          0.05481257	         -0.29478940	          0.71576703	          1.00898588	         -0.33429176	          0.80631667	          0.93393850	         -0.30016541	          0.79775298	          0.93335789	         -0.39000729	          0.78894871	          0.94812751	         -0.33600938	          0.82037592	          0.80944508	         -0.34344527	          0.83282006	          0.36608857	         -0.25654876	          0.92066312	          0.43341020	         -0.43907019	          0.76343590	          0.43087891	         -0.23033221	          0.87699133	          0.49040282	         -0.36857316	          0.73618239	          0.34777692	         -0.23586643	          0.89836508	          0.41457400	         -0.33769265	          0.50487691	          0.17012538	         -0.20409127	          0.95626992	          0.16191074	         -0.29588315	          0.56089264	          0.21707417	         -0.25203857	          0.90185606	          0.21643704	         -0.32488081	          0.46699354	          0.05379232	         -0.32915005	          0.94806552	          0.03697001	         -0.32101506	
          0.11666670	          0.79920673	          0.67267132	         -0.31606913	          7.46936798	          7.43675566	         -5.08454418	        -15.28922844	         -7.56997347	        -15.79105568	        -47.85488510	        -17.42016220	          0.00000000	          0.00000000	         15.71242142	         13.61252975	          2.51428103	        -23.79586792	          0.00924345	          0.00000000	          0.00000000	        -24.83378983	        -10.29077435	          7.84299946	          0.00000000	          0.00000000	          0.00000000	          1.24276697	          0.00000000	         -0.21325421	        -49.72189684	        326.83297396	         -3.31542326	          0.87571918	          0.00000000	         -0.33041663	          0.00000000	          0.00000000	          0.00000000	          0.00000000	          0.61015692	          0.00000000	          0.75171661	          0.59677052	         -0.32729590	          0.75241160	          0.60246664	         -0.26992041	          0.76398379	          0.61673838	         -0.38591918	          0.70830095	          0.30549306	         -0.27081385	          0.87123138	          0.34101379	         -0.33771664	          0.46475136	          0.14194639	         -0.31489030	          0.86316150	          0.05571098	         -0.32833377	          0.79920673	          0.67267132	         -0.31606913	          0.79034728	          0.66174519	         -0.22726288	          0.80806613	          0.68359751	         -0.40487534	          0.65751570	          0.68302685	         -0.28514555	          0.66586119	          0.68707716	         -0.36965582	          0.69242376	          0.30772164	         -0.22769836	          0.88217378	          0.33712783	         -0.38429093	          0.72768307	          0.29754838	         -0.31215942	          0.86242056	          0.34639373	         -0.29402944	          0.45532766	          0.14744377	         -0.28321660	          0.85771221	          0.05481182	         -0.36036104	          0.47261432	          0.14851280	         -0.34055606	          0.85844725	          0.05480374	         -0.29484084	          0.72532278	          1.01050556	         -0.33390436	          0.81568408	          0.93558943	         -0.29864541	          0.80799621	          0.93487287	         -0.38858131	          0.79860198	          0.94972569	         -0.33467999	          0.83032340	          0.81105429	         -0.34161952	          0.84970653	          0.36933407	         -0.25035495	          0.92797440	          0.43232778	         -0.43902722	          0.77667826	          0.43231273	         -0.22634870	          0.88601130	          0.48927093	         -0.36916652	          0.75293267	          0.34880480	         -0.23062965	          0.90563345	          0.41300508	         -0.33870605	          0.52046216	          0.17413625	         -0.20080385	          0.95866036	          0.15974180	         -0.29596207	          0.57840240	          0.21889286	         -0.24856097	          0.90535104	          0.21524426	         -0.32520363	          0.47985658	          0.05768249	         -0.32474574	          0.94813854	          0.03686502	         -0.32095248	
